<svg id="PauWare_view" xmlns="http://www.w3.org/2000/svg" xmlns:xlink="http://www.w3.org/1999/xlink" height="1815pt" style="width:7315px;height:1815px;" version="1.1" viewBox="0 0 7315 1815" width="7315pt"><defs><filter height="300%" id="f1" width="300%" x="-1" y="-1"><feGaussianBlur result="blurOut" stdDeviation="2.0"/><feColorMatrix in="blurOut" result="blurOut2" type="matrix" values="0 0 0 0 0 0 0 0 0 0 0 0 0 0 0 0 0 0 .4 0"/><feOffset dx="4.0" dy="4.0" in="blurOut2" result="blurOut3"/><feBlend in="SourceGraphic" in2="blurOut3" mode="normal"/></filter></defs><g><rect fill="#FEFECE" filter="url(#f1)" height="1792" rx="12.5" ry="12.5" style="stroke: #A80036; stroke-width: 1.5;" width="7294" x="14" y="16"/><rect fill="#FFFFFF" height="1758.3906" rx="12.5" ry="12.5" style="stroke: #FFFFFF; stroke-width: 1.0;" width="7288" x="17" y="46.6094"/><line style="stroke: #A80036; stroke-width: 1.5;" x1="14" x2="7308" y1="43.6094" y2="43.6094"/><text fill="#000000" font-family="sans-serif" font-size="14" lengthAdjust="spacingAndGlyphs" textLength="39" x="3641.5" y="34.5332">BCMS</text><rect fill="#FEFECE" filter="url(#f1)" height="832" rx="12.5" ry="12.5" style="stroke: #A80036; stroke-width: 1.5;" width="2822" x="165" y="44"/><rect fill="#FFFFFF" height="763.2031" rx="12.5" ry="12.5" style="stroke: #FFFFFF; stroke-width: 1.0;" width="2816" x="168" y="109.7969"/><line style="stroke: #A80036; stroke-width: 1.5;" x1="165" x2="2987" y1="106.7969" y2="106.7969"/><line style="stroke: #A80036; stroke-width: 1.5;" x1="165" x2="2987" y1="71.6094" y2="71.6094"/><text fill="#000000" font-family="sans-serif" font-size="14" lengthAdjust="spacingAndGlyphs" textLength="134" x="1418" y="62.5332">Step_3_Coordination</text><text fill="#000000" font-family="sans-serif" font-size="12" lengthAdjust="spacingAndGlyphs" textLength="316" x="170" y="86.5664">allow: timeout/BCMS.record_timeout_reason(Long,String)</text><text fill="#000000" font-family="sans-serif" font-size="12" lengthAdjust="spacingAndGlyphs" textLength="128" x="170" y="101.6602">exit/ BCMS.to_be_killed</text><rect fill="#FEFECE" filter="url(#f1)" height="50" rx="12.5" ry="12.5" style="stroke: #A80036; stroke-width: 1.5;" width="182" x="3304" y="1529"/><line style="stroke: #A80036; stroke-width: 1.5;" x1="3304" x2="3486" y1="1556.6094" y2="1556.6094"/><text fill="#000000" font-family="sans-serif" font-size="14" lengthAdjust="spacingAndGlyphs" textLength="162" x="3314" y="1548.5332">Completion_of_objectives</text><rect fill="#FEFECE" filter="url(#f1)" height="52.7031" rx="12.5" ry="12.5" style="stroke: #A80036; stroke-width: 1.5;" width="328" x="3014" y="589"/><line style="stroke: #A80036; stroke-width: 1.5;" x1="3014" x2="3342" y1="616.6094" y2="616.6094"/><text fill="#000000" font-family="sans-serif" font-size="14" lengthAdjust="spacingAndGlyphs" textLength="196" x="3080" y="608.5332">All_police_vehicles_dispatched</text><text fill="#000000" font-family="sans-serif" font-size="12" lengthAdjust="spacingAndGlyphs" textLength="308" x="3019" y="634.0664">invariant: [BCMS.PV_dispatched_equal_to_PV_required]</text><rect fill="#FEFECE" filter="url(#f1)" height="52.7031" rx="12.5" ry="12.5" style="stroke: #A80036; stroke-width: 1.5;" width="116" x="22" y="589"/><line style="stroke: #A80036; stroke-width: 1.5;" x1="22" x2="138" y1="616.6094" y2="616.6094"/><text fill="#000000" font-family="sans-serif" font-size="14" lengthAdjust="spacingAndGlyphs" textLength="18" x="71" y="608.5332">Init</text><text fill="#000000" font-family="sans-serif" font-size="12" lengthAdjust="spacingAndGlyphs" textLength="96" x="27" y="634.0664">entry/ BCMS.clear</text><ellipse cx="80" cy="260" fill="#000000" filter="url(#f1)" rx="10" ry="10" style="stroke: none; stroke-width: 1.0;"/><rect fill="#FEFECE" filter="url(#f1)" height="50" rx="12.5" ry="12.5" style="stroke: #A80036; stroke-width: 1.5;" width="122" x="1455" y="1169"/><line style="stroke: #A80036; stroke-width: 1.5;" x1="1455" x2="1577" y1="1196.6094" y2="1196.6094"/><text fill="#000000" font-family="sans-serif" font-size="14" lengthAdjust="spacingAndGlyphs" textLength="102" x="1465" y="1188.5332">FSC_connected</text><rect fill="#FEFECE" filter="url(#f1)" height="50" rx="12.5" ry="12.5" style="stroke: #A80036; stroke-width: 1.5;" width="122" x="903" y="1169"/><line style="stroke: #A80036; stroke-width: 1.5;" x1="903" x2="1025" y1="1196.6094" y2="1196.6094"/><text fill="#000000" font-family="sans-serif" font-size="14" lengthAdjust="spacingAndGlyphs" textLength="102" x="913" y="1188.5332">PSC_connected</text><rect fill="#FEFECE" filter="url(#f1)" height="67.7969" rx="12.5" ry="12.5" style="stroke: #A80036; stroke-width: 1.5;" width="180" x="4036" y="1520"/><line style="stroke: #A80036; stroke-width: 1.5;" x1="4036" x2="4216" y1="1547.6094" y2="1547.6094"/><text fill="#000000" font-family="sans-serif" font-size="14" lengthAdjust="spacingAndGlyphs" textLength="153" x="4049.5" y="1539.5332">Crisis_details_exchange</text><text fill="#000000" font-family="sans-serif" font-size="12" lengthAdjust="spacingAndGlyphs" textLength="136" x="4041" y="1565.0664">entry/ BCMS.to_be_killed</text><text fill="#000000" font-family="sans-serif" font-size="12" lengthAdjust="spacingAndGlyphs" textLength="160" x="4041" y="1580.1602">entry/ BCMS.to_be_set(Long)</text><rect fill="#FEFECE" filter="url(#f1)" height="50" rx="12.5" ry="12.5" style="stroke: #A80036; stroke-width: 1.5;" width="147" x="3023.5" y="235"/><line style="stroke: #A80036; stroke-width: 1.5;" x1="3023.5" x2="3170.5" y1="262.6094" y2="262.6094"/><text fill="#000000" font-family="sans-serif" font-size="14" lengthAdjust="spacingAndGlyphs" textLength="127" x="3033.5" y="254.5332">Step_4_Dispatching</text><rect fill="#FEFECE" filter="url(#f1)" height="52.7031" rx="12.5" ry="12.5" style="stroke: #A80036; stroke-width: 1.5;" width="326" x="4494" y="589"/><line style="stroke: #A80036; stroke-width: 1.5;" x1="4494" x2="4820" y1="616.6094" y2="616.6094"/><text fill="#000000" font-family="sans-serif" font-size="14" lengthAdjust="spacingAndGlyphs" textLength="166" x="4574" y="608.5332">All_fire_trucks_dispatched</text><text fill="#000000" font-family="sans-serif" font-size="12" lengthAdjust="spacingAndGlyphs" textLength="306" x="4499" y="634.0664">invariant: [BCMS.FT_dispatched_equal_to_FT_required]</text><rect fill="#FEFECE" filter="url(#f1)" height="52.7031" rx="12.5" ry="12.5" style="stroke: #A80036; stroke-width: 1.5;" width="225" x="3282.5" y="1666"/><line style="stroke: #A80036; stroke-width: 1.5;" x1="3282.5" x2="3507.5" y1="1693.6094" y2="1693.6094"/><text fill="#000000" font-family="sans-serif" font-size="14" lengthAdjust="spacingAndGlyphs" textLength="85" x="3352.5" y="1685.5332">End_of_crisis</text><text fill="#000000" font-family="sans-serif" font-size="12" lengthAdjust="spacingAndGlyphs" textLength="205" x="3287.5" y="1711.0664"/><ellipse cx="3395" cy="1790" fill="none" filter="url(#f1)" rx="10" ry="10" style="stroke: #000000; stroke-width: 1.0;"/><ellipse cx="3395.5" cy="1790.5" fill="#000000" rx="6" ry="6" style="stroke: none; stroke-width: 1.0;"/><rect fill="#FEFECE" filter="url(#f1)" height="496.1719" rx="12.5" ry="12.5" style="stroke: #A80036; stroke-width: 1.5;" width="4081" x="1810.5" y="946"/><rect fill="#FFFFFF" height="367" rx="12.5" ry="12.5" style="stroke: #FFFFFF; stroke-width: 1.0;" width="4075" x="1813.5" y="1072.1719"/><line style="stroke: #A80036; stroke-width: 1.5;" x1="1810.5" x2="5891.5" y1="1069.1719" y2="1069.1719"/><line style="stroke: #A80036; stroke-width: 1.5;" x1="1810.5" x2="5891.5" y1="973.6094" y2="973.6094"/><text fill="#000000" font-family="sans-serif" font-size="14" lengthAdjust="spacingAndGlyphs" textLength="93" x="3804.5" y="965.5332">Step_5_Arrival</text><text fill="#000000" font-family="sans-serif" font-size="12" lengthAdjust="spacingAndGlyphs" textLength="454" x="1815.5" y="986.0664">allow: police vehicle breakdown/BCMS.police_vehicles_dispatched_remove(String)</text><text fill="#000000" font-family="sans-serif" font-size="12" lengthAdjust="spacingAndGlyphs" textLength="398" x="1815.5" y="1001.1602">allow: fire truck breakdown/BCMS.fire_trucks_dispatched_remove(String)</text><text fill="#000000" font-family="sans-serif" font-size="12" lengthAdjust="spacingAndGlyphs" textLength="286" x="1815.5" y="1016.2539">allow: crisis is less severe/BCMS.fire_truck_recalled</text><text fill="#000000" font-family="sans-serif" font-size="12" lengthAdjust="spacingAndGlyphs" textLength="314" x="1815.5" y="1031.3477">allow: crisis is less severe/BCMS.police_vehicle_recalled</text><text fill="#000000" font-family="sans-serif" font-size="12" lengthAdjust="spacingAndGlyphs" textLength="340" x="1815.5" y="1046.4414">allow: crisis is less severe/^BCMS.enough_fire_trucks_arrived</text><text fill="#000000" font-family="sans-serif" font-size="12" lengthAdjust="spacingAndGlyphs" textLength="368" x="1815.5" y="1061.5352">allow: crisis is less severe/^BCMS.enough_police_vehicles_arrived</text><rect fill="#FEFECE" filter="url(#f1)" height="326.6094" rx="12.5" ry="12.5" style="stroke: #A80036; stroke-width: 1.5;" width="2035" x="1827.5" y="1090.1719"/><rect fill="#FFFFFF" height="293" rx="12.5" ry="12.5" style="stroke: #FFFFFF; stroke-width: 1.0;" width="2029" x="1830.5" y="1120.7813"/><line style="stroke: #A80036; stroke-width: 1.5;" x1="1827.5" x2="3862.5" y1="1117.7813" y2="1117.7813"/><text fill="#000000" font-family="sans-serif" font-size="14" lengthAdjust="spacingAndGlyphs" textLength="144" x="2773" y="1109.7051">Police_vehicles_arrival</text><rect fill="#FEFECE" filter="url(#f1)" height="52.7031" rx="12.5" ry="12.5" style="stroke: #A80036; stroke-width: 1.5;" width="225" x="1838.5" y="1291.7813"/><line style="stroke: #A80036; stroke-width: 1.5;" x1="1838.5" x2="2063.5" y1="1319.3906" y2="1319.3906"/><text fill="#000000" font-family="sans-serif" font-size="14" lengthAdjust="spacingAndGlyphs" textLength="196" x="1853" y="1311.3145">End_of_police_vehicles_arrival</text><text fill="#000000" font-family="sans-serif" font-size="12" lengthAdjust="spacingAndGlyphs" textLength="205" x="1843.5" y="1336.8477"/><ellipse cx="1951" cy="1391.7813" fill="none" filter="url(#f1)" rx="10" ry="10" style="stroke: #000000; stroke-width: 1.0;"/><ellipse cx="1951.5" cy="1392.2813" fill="#000000" rx="6" ry="6" style="stroke: none; stroke-width: 1.0;"/><rect fill="#FEFECE" filter="url(#f1)" height="50" rx="12.5" ry="12.5" style="stroke: #A80036; stroke-width: 1.5;" width="172" x="2338" y="1187.7813"/><line style="stroke: #A80036; stroke-width: 1.5;" x1="2338" x2="2510" y1="1215.3906" y2="1215.3906"/><text fill="#000000" font-family="sans-serif" font-size="14" lengthAdjust="spacingAndGlyphs" textLength="152" x="2348" y="1207.3145">Police_vehicles_arriving</text><ellipse cx="2424" cy="1140.7813" fill="#000000" filter="url(#f1)" rx="10" ry="10" style="stroke: none; stroke-width: 1.0;"/><rect fill="#FEFECE" filter="url(#f1)" height="52.7031" rx="12.5" ry="12.5" style="stroke: #A80036; stroke-width: 1.5;" width="383" x="2705.5" y="1291.7813"/><line style="stroke: #A80036; stroke-width: 1.5;" x1="2705.5" x2="3088.5" y1="1319.3906" y2="1319.3906"/><text fill="#000000" font-family="sans-serif" font-size="14" lengthAdjust="spacingAndGlyphs" textLength="171" x="2811.5" y="1311.3145">All_police_vehicles_arrived</text><text fill="#000000" font-family="sans-serif" font-size="12" lengthAdjust="spacingAndGlyphs" textLength="363" x="2710.5" y="1336.8477">invariant: [BCMS.PV_arrived_greater_or_equal_to_PV_dispatched]</text><path d="M1951,1345.0944 C1951,1355.6946 1951,1367.5609 1951,1376.543 " fill="none" style="stroke: #A80036; stroke-width: 1.0;"/><polygon fill="#A80036" points="1951,1381.7258,1955,1372.7258,1951,1376.7258,1947,1372.7258,1951,1381.7258" style="stroke: #A80036; stroke-width: 1.0;"/><path d="M2424,1150.9323 C2424,1158.9673 2424,1171.1073 2424,1182.4353 " fill="none" style="stroke: #A80036; stroke-width: 1.0;"/><polygon fill="#A80036" points="2424,1187.5653,2428,1178.5653,2424,1182.5653,2420,1178.5653,2424,1187.5653" style="stroke: #A80036; stroke-width: 1.0;"/><path d="M2510.077,1205.9233 C2520.886,1207.1323 2528,1209.4183 2528,1212.7813 C2528,1215.5663 2523.122,1217.6132 2515.306,1218.9203 " fill="none" style="stroke: #A80036; stroke-width: 1.0;"/><polygon fill="#A80036" points="2510.077,1219.6393,2519.5381,1222.3756,2515.0304,1218.9579,2518.448,1214.4502,2510.077,1219.6393" style="stroke: #A80036; stroke-width: 1.0;"/><text id="police_vehicle_arrived_BCMS_police_vehicles_arrived_add_String___BCMS_enough_police_vehicles_arrived1931971744" fill="#000000" font-family="sans-serif" font-size="13" lengthAdjust="spacingAndGlyphs" textLength="1075" x="2534" y="1218.2764">police_vehicle_arrived[BCMS.police_vehicle_arrived_less_than_police_vehicle_dispatched]/BCMS.police_vehicles_arrived_add(String);^BCMS.enough_police_vehicles_arrived</text><path d="M2510.21,1216.8653 C2633.078,1222.0013 2846.89,1233.9633 2875,1255.7813 C2884.64,1263.2643 2890.06,1275.3252 2893.11,1286.7923 " fill="none" style="stroke: #A80036; stroke-width: 1.0;"/><polygon fill="#A80036" points="2894.28,1291.6553,2896.0692,1281.9703,2893.1131,1286.7933,2888.2901,1283.8373,2894.28,1291.6553" style="stroke: #A80036; stroke-width: 1.0;"/><text id="enough_police_vehicles_arrived790589379" fill="#000000" font-family="sans-serif" font-size="13" lengthAdjust="spacingAndGlyphs" textLength="939" x="2889" y="1270.2764">enough_police_vehicles_arrived[BCMS.police_vehicle_arrived_greater_than_or_equal_to_police_vehicle_dispatched_and_not_in_All_fire_trucks_arrived]</text><path d="M2337.808,1215.2133 C2207.761,1218.2783 1973.736,1227.6743 1948,1255.7813 C1940.488,1263.9853 1939.579,1275.6823 1941.146,1286.6763 " fill="none" style="stroke: #A80036; stroke-width: 1.0;"/><polygon fill="#A80036" points="1942.025,1291.6623,1944.4009,1282.1043,1941.1565,1286.7383,1936.5225,1283.4939,1942.025,1291.6623" style="stroke: #A80036; stroke-width: 1.0;"/><text id="enough_police_vehicles_arrived1156478464" fill="#000000" font-family="sans-serif" font-size="13" lengthAdjust="spacingAndGlyphs" textLength="921" x="1949" y="1270.2764">enough_police_vehicles_arrived[BCMS.police_vehicle_arrived_greater_than_or_equal_to_police_vehicle_dispatched_and_in_All_fire_trucks_arrived]</text><rect fill="#FEFECE" filter="url(#f1)" height="326.6094" rx="12.5" ry="12.5" style="stroke: #A80036; stroke-width: 1.5;" width="1931" x="3904.5" y="1090.1719"/><rect fill="#FFFFFF" height="293" rx="12.5" ry="12.5" style="stroke: #FFFFFF; stroke-width: 1.0;" width="1925" x="3907.5" y="1120.7813"/><line style="stroke: #A80036; stroke-width: 1.5;" x1="3904.5" x2="5835.5" y1="1117.7813" y2="1117.7813"/><text fill="#000000" font-family="sans-serif" font-size="14" lengthAdjust="spacingAndGlyphs" textLength="118" x="4811" y="1109.7051">Fire_trucks_arrival</text><rect fill="#FEFECE" filter="url(#f1)" height="52.7031" rx="12.5" ry="12.5" style="stroke: #A80036; stroke-width: 1.5;" width="225" x="3915.5" y="1291.7813"/><line style="stroke: #A80036; stroke-width: 1.5;" x1="3915.5" x2="4140.5" y1="1319.3906" y2="1319.3906"/><text fill="#000000" font-family="sans-serif" font-size="14" lengthAdjust="spacingAndGlyphs" textLength="166" x="3945" y="1311.3145">End_of_fire_trucks_arrival</text><text fill="#000000" font-family="sans-serif" font-size="12" lengthAdjust="spacingAndGlyphs" textLength="205" x="3920.5" y="1336.8477"/><ellipse cx="4028" cy="1391.7813" fill="none" filter="url(#f1)" rx="10" ry="10" style="stroke: #000000; stroke-width: 1.0;"/><ellipse cx="4028.5" cy="1392.2813" fill="#000000" rx="6" ry="6" style="stroke: none; stroke-width: 1.0;"/><rect fill="#FEFECE" filter="url(#f1)" height="50" rx="12.5" ry="12.5" style="stroke: #A80036; stroke-width: 1.5;" width="146" x="4397" y="1187.7813"/><line style="stroke: #A80036; stroke-width: 1.5;" x1="4397" x2="4543" y1="1215.3906" y2="1215.3906"/><text fill="#000000" font-family="sans-serif" font-size="14" lengthAdjust="spacingAndGlyphs" textLength="126" x="4407" y="1207.3145">Fire_trucks_arriving</text><ellipse cx="4470" cy="1140.7813" fill="#000000" filter="url(#f1)" rx="10" ry="10" style="stroke: none; stroke-width: 1.0;"/><rect fill="#FEFECE" filter="url(#f1)" height="52.7031" rx="12.5" ry="12.5" style="stroke: #A80036; stroke-width: 1.5;" width="381" x="4722.5" y="1291.7813"/><line style="stroke: #A80036; stroke-width: 1.5;" x1="4722.5" x2="5103.5" y1="1319.3906" y2="1319.3906"/><text fill="#000000" font-family="sans-serif" font-size="14" lengthAdjust="spacingAndGlyphs" textLength="141" x="4842.5" y="1311.3145">All_fire_trucks_arrived</text><text fill="#000000" font-family="sans-serif" font-size="12" lengthAdjust="spacingAndGlyphs" textLength="361" x="4727.5" y="1336.8477">invariant: [BCMS.FT_arrived_greater_or_equal_to_FT_dispatched]</text><path d="M4028,1345.0944 C4028,1355.6946 4028,1367.5609 4028,1376.543 " fill="none" style="stroke: #A80036; stroke-width: 1.0;"/><polygon fill="#A80036" points="4028,1381.7258,4032,1372.7258,4028,1376.7258,4024,1372.7258,4028,1381.7258" style="stroke: #A80036; stroke-width: 1.0;"/><path d="M4470,1150.9323 C4470,1158.9673 4470,1171.1073 4470,1182.4353 " fill="none" style="stroke: #A80036; stroke-width: 1.0;"/><polygon fill="#A80036" points="4470,1187.5653,4474,1178.5653,4470,1182.5653,4466,1178.5653,4470,1187.5653" style="stroke: #A80036; stroke-width: 1.0;"/><path d="M4543.19,1205.6753 C4553.831,1206.8033 4561,1209.1723 4561,1212.7813 C4561,1215.7703 4556.084,1217.9083 4548.351,1219.1953 " fill="none" style="stroke: #A80036; stroke-width: 1.0;"/><polygon fill="#A80036" points="4543.19,1219.8873,4552.6416,1222.6561,4548.1457,1219.223,4551.5788,1214.727,4543.19,1219.8873" style="stroke: #A80036; stroke-width: 1.0;"/><text id="fire_truck_arrived_BCMS_fire_trucks_arrived_add_String___BCMS_enough_fire_trucks_arrived_1089030400" fill="#000000" font-family="sans-serif" font-size="13" lengthAdjust="spacingAndGlyphs" textLength="944" x="4567" y="1218.2764">fire_truck_arrived[BCMS.fire_truck_arrived_less_than_fire_truck_dispatched]/BCMS.fire_trucks_arrived_add(String);^BCMS.enough_fire_trucks_arrived</text><path d="M4543.01,1216.8543 C4656.293,1222.2443 4864.232,1234.8623 4891,1255.7813 C4900.53,1263.2293 4905.938,1275.1473 4909.004,1286.5172 " fill="none" style="stroke: #A80036; stroke-width: 1.0;"/><polygon fill="#A80036" points="4910.255,1291.6853,4912.0266,1281.997,4909.0793,1286.8254,4904.2509,1283.8781,4910.255,1291.6853" style="stroke: #A80036; stroke-width: 1.0;"/><text id="enough_fire_trucks_arrived_1002557162" fill="#000000" font-family="sans-serif" font-size="13" lengthAdjust="spacingAndGlyphs" textLength="896" x="4905" y="1270.2764">enough_fire_trucks_arrived[BCMS.fire_truck_arrived_greater_than_or_equal_to_fire_truck_dispatched_and_not_in_All_police_vehicles_arrived]</text><path d="M4396.953,1215.5213 C4278.066,1219.1093 4053.437,1229.3413 4029,1255.7813 C4021.458,1263.9423 4019.882,1275.6303 4020.668,1286.6293 " fill="none" style="stroke: #A80036; stroke-width: 1.0;"/><polygon fill="#A80036" points="4021.183,1291.6203,4024.2389,1282.2575,4020.6702,1286.6466,4016.2811,1283.0779,4021.183,1291.6203" style="stroke: #A80036; stroke-width: 1.0;"/><text id="enough_fire_trucks_arrived272247551" fill="#000000" font-family="sans-serif" font-size="13" lengthAdjust="spacingAndGlyphs" textLength="860" x="4030" y="1270.2764">enough_fire_trucks_arrived[BCMS.fire_truck_arrived_greater_than_or_equal_to_fire_truck_dispatched_and_in_All_police_vehicles_arrived]</text><line style="stroke: #A80036; stroke-width: 1.5; stroke-dasharray: 8.0,10.0;" x1="3889.5" x2="3889.5" y1="1074.1719" y2="1437.1719"/><rect fill="#FEFECE" filter="url(#f1)" height="50" rx="12.5" ry="12.5" style="stroke: #A80036; stroke-width: 1.5;" width="211" x="2767.5" y="107"/><line style="stroke: #A80036; stroke-width: 1.5;" x1="2767.5" x2="2978.5" y1="134.6094" y2="134.6094"/><text fill="#000000" font-family="sans-serif" font-size="14" lengthAdjust="spacingAndGlyphs" textLength="191" x="2777.5" y="126.5332">Number_of_fire_truck_defined</text><rect fill="#FEFECE" filter="url(#f1)" height="50" rx="12.5" ry="12.5" style="stroke: #A80036; stroke-width: 1.5;" width="182" x="1835" y="235"/><line style="stroke: #A80036; stroke-width: 1.5;" x1="1835" x2="2017" y1="262.6094" y2="262.6094"/><text fill="#000000" font-family="sans-serif" font-size="14" lengthAdjust="spacingAndGlyphs" textLength="162" x="1845" y="254.5332">Route_plan_development</text><rect fill="#FEFECE" filter="url(#f1)" height="50" rx="12.5" ry="12.5" style="stroke: #A80036; stroke-width: 1.5;" width="241" x="2491.5" y="107"/><line style="stroke: #A80036; stroke-width: 1.5;" x1="2491.5" x2="2732.5" y1="134.6094" y2="134.6094"/><text fill="#000000" font-family="sans-serif" font-size="14" lengthAdjust="spacingAndGlyphs" textLength="221" x="2501.5" y="126.5332">Number_of_police_vehicle_defined</text><rect fill="#FEFECE" filter="url(#f1)" height="504.6094" rx="12.5" ry="12.5" style="stroke: #A80036; stroke-width: 1.5;" width="2806" x="173" y="363"/><rect fill="#FFFFFF" height="471" rx="12.5" ry="12.5" style="stroke: #FFFFFF; stroke-width: 1.0;" width="2800" x="176" y="393.6094"/><line style="stroke: #A80036; stroke-width: 1.5;" x1="173" x2="2979" y1="390.6094" y2="390.6094"/><text fill="#000000" font-family="sans-serif" font-size="14" lengthAdjust="spacingAndGlyphs" textLength="195" x="1478.5" y="382.5332">Steps_33a1_33a2_Negotiation</text><rect fill="#FEFECE" filter="url(#f1)" height="430.6094" rx="12.5" ry="12.5" style="stroke: #A80036; stroke-width: 1.5;" width="1369" x="190" y="411.6094"/><rect fill="#FFFFFF" height="397" rx="12.5" ry="12.5" style="stroke: #FFFFFF; stroke-width: 1.0;" width="1363" x="193" y="442.2188"/><line style="stroke: #A80036; stroke-width: 1.5;" x1="190" x2="1559" y1="439.2188" y2="439.2188"/><text fill="#000000" font-family="sans-serif" font-size="14" lengthAdjust="spacingAndGlyphs" textLength="256" x="746.5" y="431.1426">Route_for_police_vehicles_development</text><rect fill="#FEFECE" filter="url(#f1)" height="50" rx="12.5" ry="12.5" style="stroke: #A80036; stroke-width: 1.5;" width="299" x="505.5" y="509.2188"/><line style="stroke: #A80036; stroke-width: 1.5;" x1="505.5" x2="804.5" y1="536.8281" y2="536.8281"/><text fill="#000000" font-family="sans-serif" font-size="14" lengthAdjust="spacingAndGlyphs" textLength="279" x="515.5" y="528.752">Route_for_police_vehicles_to_be_proposed</text><ellipse cx="655" cy="462.2188" fill="#000000" filter="url(#f1)" rx="10" ry="10" style="stroke: none; stroke-width: 1.0;"/><rect fill="#FEFECE" filter="url(#f1)" height="52.7031" rx="12.5" ry="12.5" style="stroke: #A80036; stroke-width: 1.5;" width="324" x="201" y="717.2188"/><line style="stroke: #A80036; stroke-width: 1.5;" x1="201" x2="525" y1="744.8281" y2="744.8281"/><text fill="#000000" font-family="sans-serif" font-size="14" lengthAdjust="spacingAndGlyphs" textLength="304" x="211" y="736.752">End_of_route_for_police_vehicles_development</text><text fill="#000000" font-family="sans-serif" font-size="12" lengthAdjust="spacingAndGlyphs" textLength="205" x="206" y="762.2852"/><ellipse cx="363" cy="817.2188" fill="none" filter="url(#f1)" rx="10" ry="10" style="stroke: #000000; stroke-width: 1.0;"/><ellipse cx="363.5" cy="817.7188" fill="#000000" rx="6" ry="6" style="stroke: none; stroke-width: 1.0;"/><rect fill="#FEFECE" filter="url(#f1)" height="50" rx="12.5" ry="12.5" style="stroke: #A80036; stroke-width: 1.5;" width="224" x="543" y="613.2188"/><line style="stroke: #A80036; stroke-width: 1.5;" x1="543" x2="767" y1="640.8281" y2="640.8281"/><text fill="#000000" font-family="sans-serif" font-size="14" lengthAdjust="spacingAndGlyphs" textLength="204" x="553" y="632.752">Route_for_police_vehicles_fixed</text><rect fill="#FEFECE" filter="url(#f1)" height="50" rx="12.5" ry="12.5" style="stroke: #A80036; stroke-width: 1.5;" width="255" x="820.5" y="718.7188"/><line style="stroke: #A80036; stroke-width: 1.5;" x1="820.5" x2="1075.5" y1="746.3281" y2="746.3281"/><text fill="#000000" font-family="sans-serif" font-size="14" lengthAdjust="spacingAndGlyphs" textLength="235" x="830.5" y="738.252">Route_for_police_vehicles_approved</text><path d="M655,472.3698 C655,480.4048 655,492.5448 655,503.8728 " fill="none" style="stroke: #A80036; stroke-width: 1.0;"/><polygon fill="#A80036" points="655,509.0028,659,500.0028,655,504.0028,651,500.0028,655,509.0028" style="stroke: #A80036; stroke-width: 1.0;"/><path d="M363,770.5319 C363,781.132 363,792.9984 363,801.9805 " fill="none" style="stroke: #A80036; stroke-width: 1.0;"/><polygon fill="#A80036" points="363,807.1633,367,798.1633,363,802.1633,359,798.1633,363,807.1633" style="stroke: #A80036; stroke-width: 1.0;"/><path d="M767.1,645.1478 C830.482,650.6637 901.775,661.2048 926,681.2188 C935.715,689.2448 941.141,701.8908 944.171,713.6347 " fill="none" style="stroke: #A80036; stroke-width: 1.0;"/><polygon fill="#A80036" points="945.328,718.5958,947.1795,708.9225,944.1924,713.7264,939.3885,710.7394,945.328,718.5958" style="stroke: #A80036; stroke-width: 1.0;"/><text id="FSC_agrees_about_police_vehicle_route1571814766" fill="#000000" font-family="sans-serif" font-size="13" lengthAdjust="spacingAndGlyphs" textLength="585" x="940" y="695.7139">FSC_agrees_about_police_vehicle_route[BCMS.not_in_Route_for_fire_trucks_approved]</text><path d="M542.899,640.8328 C471.218,644.4978 387.442,654.5918 364,681.2188 C356.784,689.4158 355.174,700.8778 355.842,711.6878 " fill="none" style="stroke: #A80036; stroke-width: 1.0;"/><polygon fill="#A80036" points="356.338,716.9258,359.4718,707.5888,355.8667,711.948,351.5074,708.3429,356.338,716.9258" style="stroke: #A80036; stroke-width: 1.0;"/><text id="FSC_agrees_about_police_vehicle_route1243753190" fill="#000000" font-family="sans-serif" font-size="13" lengthAdjust="spacingAndGlyphs" textLength="560" x="365" y="695.7139">FSC_agrees_about_police_vehicle_route[BCMS.in_Route_for_fire_trucks_approved]</text><path d="M548.493,559.3508 C541.403,564.2628 535.078,570.1547 530,577.2188 C519.963,591.1788 525.258,602.0197 538.11,610.3958 " fill="none" style="stroke: #A80036; stroke-width: 1.0;"/><polygon fill="#A80036" points="542.747,613.1418,537.0418,605.1136,538.445,610.5937,532.9649,611.9968,542.747,613.1418" style="stroke: #A80036; stroke-width: 1.0;"/><text id="route_for_police_vehicles_1851918248" fill="#000000" font-family="sans-serif" font-size="13" lengthAdjust="spacingAndGlyphs" textLength="227" x="531" y="591.7139">route_for_police_vehicles</text><path d="M744.114,613.1078 C760.278,604.1328 769.2,592.3388 759,577.2188 C755.182,571.5588 750.458,566.6618 745.15,562.4237 " fill="none" style="stroke: #A80036; stroke-width: 1.0;"/><polygon fill="#A80036" points="740.981,559.3098,745.7987,567.8999,744.9872,562.3015,750.5855,561.49,740.981,559.3098" style="stroke: #A80036; stroke-width: 1.0;"/><text id="FSC_disagrees_about_police_vehicle_route218609128" fill="#000000" font-family="sans-serif" font-size="13" lengthAdjust="spacingAndGlyphs" textLength="323" x="765" y="591.7139">FSC_disagrees_about_police_vehicle_route</text><rect fill="#FEFECE" filter="url(#f1)" height="430.6094" rx="12.5" ry="12.5" style="stroke: #A80036; stroke-width: 1.5;" width="1327" x="1601" y="411.6094"/><rect fill="#FFFFFF" height="397" rx="12.5" ry="12.5" style="stroke: #FFFFFF; stroke-width: 1.0;" width="1321" x="1604" y="442.2188"/><line style="stroke: #A80036; stroke-width: 1.5;" x1="1601" x2="2928" y1="439.2188" y2="439.2188"/><text fill="#000000" font-family="sans-serif" font-size="14" lengthAdjust="spacingAndGlyphs" textLength="226" x="2151.5" y="431.1426">Route_for_fire_trucks_development</text><rect fill="#FEFECE" filter="url(#f1)" height="50" rx="12.5" ry="12.5" style="stroke: #A80036; stroke-width: 1.5;" width="269" x="1897" y="509.2188"/><line style="stroke: #A80036; stroke-width: 1.5;" x1="1897" x2="2166" y1="536.8281" y2="536.8281"/><text fill="#000000" font-family="sans-serif" font-size="14" lengthAdjust="spacingAndGlyphs" textLength="249" x="1907" y="528.752">Route_for_fire_trucks_to_be_proposed</text><ellipse cx="2031.5" cy="462.2188" fill="#000000" filter="url(#f1)" rx="10" ry="10" style="stroke: none; stroke-width: 1.0;"/><rect fill="#FEFECE" filter="url(#f1)" height="50" rx="12.5" ry="12.5" style="stroke: #A80036; stroke-width: 1.5;" width="225" x="1612" y="718.7188"/><line style="stroke: #A80036; stroke-width: 1.5;" x1="1612" x2="1837" y1="746.3281" y2="746.3281"/><text fill="#000000" font-family="sans-serif" font-size="14" lengthAdjust="spacingAndGlyphs" textLength="205" x="1622" y="738.252">Route_for_fire_trucks_approved</text><rect fill="#FEFECE" filter="url(#f1)" height="50" rx="12.5" ry="12.5" style="stroke: #A80036; stroke-width: 1.5;" width="194" x="1934.5" y="613.2188"/><line style="stroke: #A80036; stroke-width: 1.5;" x1="1934.5" x2="2128.5" y1="640.8281" y2="640.8281"/><text fill="#000000" font-family="sans-serif" font-size="14" lengthAdjust="spacingAndGlyphs" textLength="174" x="1944.5" y="632.752">Route_for_fire_trucks_fixed</text><rect fill="#FEFECE" filter="url(#f1)" height="52.7031" rx="12.5" ry="12.5" style="stroke: #A80036; stroke-width: 1.5;" width="294" x="2191.5" y="717.2188"/><line style="stroke: #A80036; stroke-width: 1.5;" x1="2191.5" x2="2485.5" y1="744.8281" y2="744.8281"/><text fill="#000000" font-family="sans-serif" font-size="14" lengthAdjust="spacingAndGlyphs" textLength="274" x="2201.5" y="736.752">End_of_route_for_fire_trucks_development</text><text fill="#000000" font-family="sans-serif" font-size="12" lengthAdjust="spacingAndGlyphs" textLength="205" x="2196.5" y="762.2852"/><ellipse cx="2338.5" cy="817.2188" fill="none" filter="url(#f1)" rx="10" ry="10" style="stroke: #000000; stroke-width: 1.0;"/><ellipse cx="2339" cy="817.7188" fill="#000000" rx="6" ry="6" style="stroke: none; stroke-width: 1.0;"/><path d="M2031.5,472.3698 C2031.5,480.4048 2031.5,492.5448 2031.5,503.8728 " fill="none" style="stroke: #A80036; stroke-width: 1.0;"/><polygon fill="#A80036" points="2031.5,509.0028,2035.5,500.0028,2031.5,504.0028,2027.5,500.0028,2031.5,509.0028" style="stroke: #A80036; stroke-width: 1.0;"/><path d="M1934.413,639.2828 C1855.343,641.6347 1752.535,650.7238 1725.5,681.2188 C1717.883,689.8108 1716.488,702.0358 1717.433,713.3258 " fill="none" style="stroke: #A80036; stroke-width: 1.0;"/><polygon fill="#A80036" points="1718.017,718.4308,1720.9649,709.0334,1717.447,713.4633,1713.017,709.9455,1718.017,718.4308" style="stroke: #A80036; stroke-width: 1.0;"/><text id="FSC_agrees_about_fire_truck_route_1532249145" fill="#000000" font-family="sans-serif" font-size="13" lengthAdjust="spacingAndGlyphs" textLength="589" x="1726.5" y="695.7139">FSC_agrees_about_fire_truck_route[BCMS.not_in_Route_for_police_vehicles_approved]</text><path d="M2338.5,770.5319 C2338.5,781.132 2338.5,792.9984 2338.5,801.9805 " fill="none" style="stroke: #A80036; stroke-width: 1.0;"/><polygon fill="#A80036" points="2338.5,807.1633,2342.5,798.1633,2338.5,802.1633,2334.5,798.1633,2338.5,807.1633" style="stroke: #A80036; stroke-width: 1.0;"/><path d="M2128.502,642.9958 C2199.54,647.6637 2288.267,658.0698 2316.5,681.2188 C2325.777,688.8258 2331.144,700.6488 2334.248,711.9038 " fill="none" style="stroke: #A80036; stroke-width: 1.0;"/><polygon fill="#A80036" points="2335.52,717.0188,2337.2285,707.3192,2334.3127,712.1667,2329.4652,709.2509,2335.52,717.0188" style="stroke: #A80036; stroke-width: 1.0;"/><text id="FSC_agrees_about_fire_truck_route_1112871042" fill="#000000" font-family="sans-serif" font-size="13" lengthAdjust="spacingAndGlyphs" textLength="564" x="2329.5" y="695.7139">FSC_agrees_about_fire_truck_route[BCMS.in_Route_for_police_vehicles_approved]</text><path d="M1936.946,559.3478 C1920.737,568.2428 1912.049,579.9918 1922.5,595.2188 C1926.341,600.8148 1931.041,605.6658 1936.309,609.8698 " fill="none" style="stroke: #A80036; stroke-width: 1.0;"/><polygon fill="#A80036" points="1940.443,612.9608,1935.6307,604.3676,1936.4387,609.9665,1930.8399,610.7745,1940.443,612.9608" style="stroke: #A80036; stroke-width: 1.0;"/><text id="route_for_fire_trucks1100050199" fill="#000000" font-family="sans-serif" font-size="13" lengthAdjust="spacingAndGlyphs" textLength="196" x="1923.5" y="591.7139">route_for_fire_trucks</text><path d="M2104.831,613.1728 C2120.47,603.9058 2129.828,591.9348 2120.5,577.2188 C2116.928,571.5838 2112.376,566.6908 2107.225,562.4448 " fill="none" style="stroke: #A80036; stroke-width: 1.0;"/><polygon fill="#A80036" points="2103.175,559.3218,2107.8591,567.9854,2107.1343,562.3752,2112.7446,561.6505,2103.175,559.3218" style="stroke: #A80036; stroke-width: 1.0;"/><text id="FSC_disagrees_about_fire_truck_route_1934210103" fill="#000000" font-family="sans-serif" font-size="13" lengthAdjust="spacingAndGlyphs" textLength="307" x="2125.5" y="591.7139">FSC_disagrees_about_fire_truck_route</text><line style="stroke: #A80036; stroke-width: 1.5; stroke-dasharray: 8.0,10.0;" x1="1586" x2="1586" y1="395.6094" y2="862.6094"/><path d="M1834.79,284.31 C1833.52,284.55 1832.26,284.78 1831,285 C1767.2,296.3 1584.39,266.89 1541,315 C1529.4,327.86 1521.39,342.4 1516.22,357.96 " fill="none" style="stroke: #A80036; stroke-width: 1.0;"/><polygon fill="#A80036" points="1514.71,362.82,1521.2048,355.4161,1516.1965,358.0461,1513.5665,353.0377,1514.71,362.82" style="stroke: #A80036; stroke-width: 1.0;"/><text id="route_for_fire_trucks__BCMS_route_for_fires_trucks1164144691" fill="#000000" font-family="sans-serif" font-size="13" lengthAdjust="spacingAndGlyphs" textLength="371" x="1542" y="329.4951">route_for_fire_trucks/^BCMS.route_for_fires_trucks</text><path d="M1927.75,285.04 C1927.79,299.72 1925.91,318.4 1918,333 C1913.36,341.56 1908.35,349.96 1903.01,358.19 " fill="none" style="stroke: #A80036; stroke-width: 1.0;"/><polygon fill="#A80036" points="1900.01,362.75,1908.2969,357.4276,1902.757,358.5722,1901.6124,353.0324,1900.01,362.75" style="stroke: #A80036; stroke-width: 1.0;"/><text id="route_for_police_vehicles__BCMS_route_for_police_vehicles1164144691" fill="#000000" font-family="sans-serif" font-size="13" lengthAdjust="spacingAndGlyphs" textLength="418" x="1926" y="329.4951">route_for_police_vehicles/^BCMS.route_for_police_vehicles</text><path d="M2491.33,154.87 C2485.48,155.65 2479.68,156.37 2474,157 C2440.06,160.77 1883.55,162.27 1860,187 C1846.08,201.61 1859.37,218.2 1877.57,231.76 " fill="none" style="stroke: #A80036; stroke-width: 1.0;"/><polygon fill="#A80036" points="1881.77,234.79,1876.8137,226.2791,1877.7159,231.8636,1872.1314,232.7658,1881.77,234.79" style="stroke: #A80036; stroke-width: 1.0;"/><text id="state_fire_truck_number_BCMS_set_number_of_fire_truck_required_Integer_1995347932" fill="#000000" font-family="sans-serif" font-size="13" lengthAdjust="spacingAndGlyphs" textLength="509" x="1861" y="201.4951">state_fire_truck_number/BCMS.set_number_of_fire_truck_required(Integer)</text><path d="M2767.44,154.33 C2761.55,155.29 2755.71,156.19 2750,157 C2601.56,178.05 2558.86,148.35 2414,187 C2395.55,191.92 2393.46,200.12 2375,205 C2223.99,244.93 2177.72,209.68 2022.3,234.82 " fill="none" style="stroke: #A80036; stroke-width: 1.0;"/><polygon fill="#A80036" points="2017.2,235.66,2026.7317,238.1394,2022.1331,234.845,2025.4276,230.2464,2017.2,235.66" style="stroke: #A80036; stroke-width: 1.0;"/><text id="state_police_vehicle_number_BCMS_set_number_of_police_vehicle_required_Integer_1242275572" fill="#000000" font-family="sans-serif" font-size="13" lengthAdjust="spacingAndGlyphs" textLength="563" x="2415" y="201.4951">state_police_vehicle_number/BCMS.set_number_of_police_vehicle_required(Integer)</text><path d="M80,270.09 C80,314.26 80,507.36 80,583.49 " fill="none" style="stroke: #A80036; stroke-width: 1.0;"/><polygon fill="#A80036" points="80,588.76,84,579.76,80,583.76,76,579.76,80,588.76" style="stroke: #A80036; stroke-width: 1.0;"/><path d="M78.9198,642.21 C78.2386,695.48 85.0516,817.742 157,876 C161.791,879.88 1036.07,944.298 1042,946 C1215.58,995.85 1399.19,1112.663 1477.26,1165.81 " fill="none" style="stroke: #A80036; stroke-width: 1.0;"/><polygon fill="#A80036" points="1481.8,1168.91,1476.6362,1160.5234,1477.6752,1166.084,1472.1146,1167.1231,1481.8,1168.91" style="stroke: #A80036; stroke-width: 1.0;"/><text id="FSC_connection_request782529882" fill="#000000" font-family="sans-serif" font-size="13" lengthAdjust="spacingAndGlyphs" textLength="218" x="653" y="912.4951">FSC_connection_request</text><path d="M80.4788,642.18 C82.7969,693.26 95.0427,808.48 157,876 C361.931,1099.325 743.763,1167.454 897.416,1186.363 " fill="none" style="stroke: #A80036; stroke-width: 1.0;"/><polygon fill="#A80036" points="902.785,1187.015,894.333,1181.9589,897.8215,1186.4121,893.3683,1189.9005,902.785,1187.015" style="stroke: #A80036; stroke-width: 1.0;"/><text id="PSC_connection_request805193575" fill="#000000" font-family="sans-serif" font-size="13" lengthAdjust="spacingAndGlyphs" textLength="219" x="191" y="912.4951">PSC_connection_request</text><path d="M999.864,1219.063 C1076.49,1269.239 1263.36,1385.089 1437,1442 C1570.74,1485.831 1609.77,1478.102 1750,1490 C2138.22,1522.938 3113.63,1506.36 3503,1520 C3690.11,1526.554 3908.57,1539.303 4030.74,1546.892 " fill="none" style="stroke: #A80036; stroke-width: 1.0;"/><polygon fill="#A80036" points="4035.77,1547.205,4027.0392,1542.6472,4030.7799,1546.8907,4026.5364,1550.6314,4035.77,1547.205" style="stroke: #A80036; stroke-width: 1.0;"/><text id="FSC_connection_request_1654433868" fill="#000000" font-family="sans-serif" font-size="13" lengthAdjust="spacingAndGlyphs" textLength="229" x="1751" y="1486.4951">FSC_connection_request</text><path d="M1533.42,1219.087 C1572.74,1271.203 1674.26,1393.62 1793,1442 C1969.14,1513.764 3313.03,1510.636 3503,1520 C3690.13,1529.224 3908.81,1541.049 4030.97,1547.749 " fill="none" style="stroke: #A80036; stroke-width: 1.0;"/><polygon fill="#A80036" points="4035.99,1548.025,4027.2204,1543.5423,4030.9974,1547.7536,4026.7861,1551.5306,4035.99,1548.025" style="stroke: #A80036; stroke-width: 1.0;"/><text id="PSC_connection_request1937958945" fill="#000000" font-family="sans-serif" font-size="13" lengthAdjust="spacingAndGlyphs" textLength="226" x="2206" y="1486.4951">PSC_connection_request</text><path d="M4216.12,1551.145 C4556.74,1543.625 5754.25,1512.379 5909,1442 C6049.46,1378.116 6153,1349.309 6153,1195 C6153,259 6153,259 6153,259 C6153,128.22 5695.7,239.48 5565,235 C4939.57,213.57 3372.67,219.44 2750,157 C2746,156.6 2741.94,156.15 2737.85,155.66 " fill="none" style="stroke: #A80036; stroke-width: 1.0;"/><polygon fill="#A80036" points="2732.65,155.02,2741.0915,160.0935,2737.6123,155.6332,2742.0726,152.1539,2732.65,155.02" style="stroke: #A80036; stroke-width: 1.0;"/><text id="state_police_vehicle_number_BCMS_set_number_of_police_vehicle_required_Integer__1095368552" fill="#000000" font-family="sans-serif" font-size="13" lengthAdjust="spacingAndGlyphs" textLength="567" x="6154" y="620.9951">state_police_vehicle_number/BCMS.set_number_of_police_vehicle_required(Integer)</text><path d="M4216.27,1552.357 C4585.67,1549.432 5971.47,1535.502 6162,1490 C6462.72,1418.181 6792,1504.177 6792,1195 C6792,259 6792,259 6792,259 C6792,118.09 6302.61,196.17 6162,187 C5523.44,145.37 3482.36,135.24 2983.69,133.37 " fill="none" style="stroke: #A80036; stroke-width: 1.0;"/><polygon fill="#A80036" points="2978.62,133.35,2987.6085,137.3757,2983.62,133.3643,2987.6314,129.3757,2978.62,133.35" style="stroke: #A80036; stroke-width: 1.0;"/><text id="state_fire_truck_number_BCMS_set_number_of_fire_truck_required_Integer__288377216" fill="#000000" font-family="sans-serif" font-size="13" lengthAdjust="spacingAndGlyphs" textLength="506" x="6793" y="620.9951">state_fire_truck_number/BCMS.set_number_of_fire_truck_required(Integer)</text><path d="M2660.72,362.97 C2773.61,336.68 2886.64,310.33 2995,285 C3002.63,283.22 3010.58,281.35 3018.52,279.49 " fill="none" style="stroke: #A80036; stroke-width: 1.0;"/><polygon fill="#A80036" points="3023.46,278.33,3013.7843,276.4914,3018.5922,279.472,3015.6115,284.2799,3023.46,278.33" style="stroke: #A80036; stroke-width: 1.0;"/><text id="no_more_route_left1496815150" fill="#000000" font-family="sans-serif" font-size="13" lengthAdjust="spacingAndGlyphs" textLength="189" x="2843" y="329.4951">no_more_route_left</text><path d="M2987,187 C3015.85,196.53 3044.44,215.62 3065.24,231.75 " fill="none" style="stroke: #A80036; stroke-width: 1.0;"/><polygon fill="#A80036" points="3069.3,234.93,3064.693,226.2251,3065.3679,231.8415,3059.7515,232.5164,3069.3,234.93" style="stroke: #A80036; stroke-width: 1.0;"/><text id="completion_1906426063" fill="#000000" font-family="sans-serif" font-size="13" lengthAdjust="spacingAndGlyphs" textLength="146" x="3024" y="201.4951"/><path d="M3170.53,254.04 C3190.39,254.36 3205.5,256.34 3205.5,260 C3205.5,263.34 3192.88,265.29 3175.54,265.84 " fill="none" style="stroke: #A80036; stroke-width: 1.0;"/><polygon fill="#A80036" points="3170.53,265.96,3179.6191,269.7533,3175.5287,265.8457,3179.4362,261.7554,3170.53,265.96" style="stroke: #A80036; stroke-width: 1.0;"/><text id="fire_truck_dispatched_BCMS_fire_trucks_dispatched_add_String___BCMS_enough_fire_trucks_dispatched_103679200" fill="#000000" font-family="sans-serif" font-size="13" lengthAdjust="spacingAndGlyphs" textLength="1091" x="3211.5" y="265.4951">fire_truck_dispatched[BCMS.fire_truck_dispatched_less_than_number_of_fire_truck_required]/BCMS.fire_trucks_dispatched_add(String);^BCMS.enough_fire_trucks_dispatched</text><path d="M3170.66,254.44 C3435.38,244.29 4308.5,246.14 4308.5,260 C4308.5,273.77 3446.43,275.69 3175.77,265.75 " fill="none" style="stroke: #A80036; stroke-width: 1.0;"/><polygon fill="#A80036" points="3170.66,265.56,3179.5053,269.8913,3175.6566,265.7456,3179.8023,261.8968,3170.66,265.56" style="stroke: #A80036; stroke-width: 1.0;"/><text id="police_vehicle_dispatched_BCMS_police_vehicles_dispatched_add_String___BCMS_enough_police_vehicles_dispatched_103679200" fill="#000000" font-family="sans-serif" font-size="13" lengthAdjust="spacingAndGlyphs" textLength="1226" x="4314.5" y="265.4951">police_vehicle_dispatched[BCMS.police_vehicle_dispatched_less_than_number_of_police_vehicle_required]/BCMS.police_vehicles_dispatched_add(String);^BCMS.enough_police_vehicles_dispatched</text><path d="M4688.68,588.91 C4757.96,544.47 4855,553.34 4855,615.5 C4855,676.33 4762.08,686.12 4693.18,644.88 " fill="none" style="stroke: #A80036; stroke-width: 1.0;"/><polygon fill="#A80036" points="4688.68,642.09,4694.2241,650.2302,4692.9304,644.7233,4698.4373,643.4295,4688.68,642.09" style="stroke: #A80036; stroke-width: 1.0;"/><text id="police_vehicle_dispatched_BCMS_police_vehicles_dispatched_add_String___BCMS_enough_police_vehicles_dispatched_1298671840" fill="#000000" font-family="sans-serif" font-size="13" lengthAdjust="spacingAndGlyphs" textLength="1233" x="4861" y="620.9951">police_vehicle_dispatched[BCMS.police_vehicle_dispatched_less_than_number_of_police_vehicle_required]/BCMS.police_vehicles_dispatched_add(String);^BCMS.enough_police_vehicles_dispatched</text><path d="M3170.7,262.75 C3440.19,269.67 4362.33,297.92 4476,363 C4565.28,414.11 4622.17,529.2 4645.25,584.16 " fill="none" style="stroke: #A80036; stroke-width: 1.0;"/><polygon fill="#A80036" points="4647.24,588.97,4647.46,579.1236,4645.3119,584.3567,4640.0787,582.2086,4647.24,588.97" style="stroke: #A80036; stroke-width: 1.0;"/><text id="enough_fire_trucks_dispatched932719104" fill="#000000" font-family="sans-serif" font-size="13" lengthAdjust="spacingAndGlyphs" textLength="757" x="4338" y="329.4951">enough_fire_trucks_dispatched[BCMS.fire_truck_dispatched_greater_than_or_equal_to_number_of_fire_truck_required]</text><path d="M3102.5,285.02 C3116.77,347.27 3154.92,513.78 3170.85,583.32 " fill="none" style="stroke: #A80036; stroke-width: 1.0;"/><polygon fill="#A80036" points="3172.05,588.55,3173.9425,578.8847,3170.9351,583.6759,3166.1439,580.6685,3172.05,588.55" style="stroke: #A80036; stroke-width: 1.0;"/><text id="enough_police_vehicles_dispatched446642941" fill="#000000" font-family="sans-serif" font-size="13" lengthAdjust="spacingAndGlyphs" textLength="838" x="3114" y="329.4951">enough_police_vehicles_dispatched[BCMS.police_vehicle_dispatched_greater_than_or_equal_to_number_of_police_vehicle_required]</text><path d="M3209.84,588.91 C3279.47,544.47 3377,553.34 3377,615.5 C3377,676.33 3283.61,686.12 3214.37,644.88 " fill="none" style="stroke: #A80036; stroke-width: 1.0;"/><polygon fill="#A80036" points="3209.84,642.09,3215.3964,650.2218,3214.0944,644.7169,3219.5993,643.4148,3209.84,642.09" style="stroke: #A80036; stroke-width: 1.0;"/><text id="fire_truck_dispatched_BCMS_fire_trucks_dispatched_add_String___BCMS_enough_fire_trucks_dispatched326760128" fill="#000000" font-family="sans-serif" font-size="13" lengthAdjust="spacingAndGlyphs" textLength="1087" x="3383" y="620.9951">fire_truck_dispatched[BCMS.fire_truck_dispatched_less_than_number_of_fire_truck_required]/BCMS.fire_trucks_dispatched_add(String);^BCMS.enough_fire_trucks_dispatched</text><path d="M4644.64,642.1 C4619.22,692.53 4556.63,805.91 4476,876 C4448.98,899.489 4419.91,921.766 4389.62,942.801 " fill="none" style="stroke: #A80036; stroke-width: 1.0;"/><polygon fill="#A80036" points="4385.15,945.895,4394.8279,944.068,4389.2631,943.052,4390.2791,937.4871,4385.15,945.895" style="stroke: #A80036; stroke-width: 1.0;"/><text id="enough_police_vehicles_dispatched_1962516147" fill="#000000" font-family="sans-serif" font-size="13" lengthAdjust="spacingAndGlyphs" textLength="849" x="4449" y="912.4951">enough_police_vehicles_dispatched[BCMS.police_vehicle_dispatched_greater_than_or_equal_to_number_of_police_vehicle_required]</text><path d="M4560.29,1442.119 C4568.27,1451.703 4575.86,1461.659 4583,1472 C4625.4,1533.384 4367.34,1548.346 4221.31,1551.926 " fill="none" style="stroke: #A80036; stroke-width: 1.0;"/><polygon fill="#A80036" points="4216.16,1552.049,4225.2491,1555.8422,4221.1587,1551.9347,4225.0662,1547.8443,4216.16,1552.049" style="stroke: #A80036; stroke-width: 1.0;"/><text id="crisis_is_more_severe_1865827010" fill="#000000" font-family="sans-serif" font-size="13" lengthAdjust="spacingAndGlyphs" textLength="211" x="4589" y="1486.4951">crisis_is_more_severe</text><path d="M3550.72,1442.374 C3552.11,1458.407 3559.06,1474.381 3573,1490 C3602.87,1523.463 3880.31,1541.526 4030.49,1548.925 " fill="none" style="stroke: #A80036; stroke-width: 1.0;"/><polygon fill="#A80036" points="4035.78,1549.184,4026.9849,1544.7516,4030.7859,1548.9412,4026.5963,1552.7422,4035.78,1549.184" style="stroke: #A80036; stroke-width: 1.0;"/><text id="police_vehicle_blocked_BCMS_police_vehicles_dispatched_remove_String__1865827010" fill="#000000" font-family="sans-serif" font-size="13" lengthAdjust="spacingAndGlyphs" textLength="508" x="3574" y="1486.4951">police_vehicle_blocked/BCMS.police_vehicles_dispatched_remove(String)</text><path d="M4066.73,1442.182 C4073.75,1452.115 4080.54,1462.073 4087,1472 C4095.72,1485.396 4103.71,1501.038 4110.15,1514.986 " fill="none" style="stroke: #A80036; stroke-width: 1.0;"/><polygon fill="#A80036" points="4112.28,1519.645,4112.1805,1509.7966,4110.2032,1515.0967,4104.9032,1513.1195,4112.28,1519.645" style="stroke: #A80036; stroke-width: 1.0;"/><text id="fire_truck_blocked_BCMS_fire_trucks_dispatched_remove_String__1865827010" fill="#000000" font-family="sans-serif" font-size="13" lengthAdjust="spacingAndGlyphs" textLength="454" x="4099" y="1486.4951">fire_truck_blocked/BCMS.fire_trucks_dispatched_remove(String)</text><path d="M3207.79,642.02 C3269.94,695.26 3419.26,823.169 3558.4,942.353 " fill="none" style="stroke: #A80036; stroke-width: 1.0;"/><polygon fill="#A80036" points="3562.51,945.877,3558.2639,936.9905,3558.7079,942.6299,3553.0685,943.0739,3562.51,945.877" style="stroke: #A80036; stroke-width: 1.0;"/><text id="enough_fire_trucks_dispatched148991984" fill="#000000" font-family="sans-serif" font-size="13" lengthAdjust="spacingAndGlyphs" textLength="757" x="3516" y="912.4951">enough_fire_trucks_dispatched[BCMS.fire_truck_dispatched_greater_than_or_equal_to_number_of_fire_truck_required]</text><path d="M3435.99,1442.241 C3427.87,1451.869 3420.18,1461.788 3413,1472 C3402.41,1487.058 3397.91,1507.265 3396.06,1523.729 " fill="none" style="stroke: #A80036; stroke-width: 1.0;"/><polygon fill="#A80036" points="3395.56,1528.708,3400.426,1520.1452,3396.0519,1523.7323,3392.4648,1519.3582,3395.56,1528.708" style="stroke: #A80036; stroke-width: 1.0;"/><text id="completion_376564238" fill="#000000" font-family="sans-serif" font-size="13" lengthAdjust="spacingAndGlyphs" textLength="139" x="3414" y="1486.4951"/><path d="M3395,1719.0922 C3395,1736.8466 3395,1759.8524 3395,1774.5241 " fill="none" style="stroke: #A80036; stroke-width: 1.0;"/><polygon fill="#A80036" points="3395,1779.8944,3399,1770.8944,3395,1774.8944,3391,1770.8944,3395,1779.8944" style="stroke: #A80036; stroke-width: 1.0;"/><path d="M3395,1579.089 C3395,1601.811 3395,1635.978 3395,1660.677 " fill="none" style="stroke: #A80036; stroke-width: 1.0;"/><polygon fill="#A80036" points="3395,1665.797,3399,1656.797,3395,1660.797,3391,1656.797,3395,1665.797" style="stroke: #A80036; stroke-width: 1.0;"/><text id="close_1504018414" fill="#000000" font-family="sans-serif" font-size="13" lengthAdjust="spacingAndGlyphs" textLength="114" x="3396" y="1632.4951">close</text></g></svg>